<!DOCTYPE svg PUBLIC "-//W3C//DTD SVG 1.1//EN" "http://www.w3.org/Graphics/SVG/1.1/DTD/svg11.dtd">
<!-- Uploaded to: SVG Repo, www.svgrepo.com, Transformed by: SVG Repo Mixer Tools -->
<svg fill="#ffffff" height="800px" width="800px" version="1.1" id="Capa_1" xmlns="http://www.w3.org/2000/svg" xmlns:xlink="http://www.w3.org/1999/xlink" viewBox="0 0 379.709 379.709" xml:space="preserve" stroke="#ffffff">
<g id="SVGRepo_bgCarrier" stroke-width="0"/>
<g id="SVGRepo_tracerCarrier" stroke-linecap="round" stroke-linejoin="round"/>
<g id="SVGRepo_iconCarrier"> <g> <path d="M57.625,312.362c14.944,0,22.979-5.771,29.436-10.408c5.905-4.241,10.57-7.592,20.686-7.592 c10.117,0,14.781,3.351,20.687,7.592c6.456,4.637,14.492,10.408,29.436,10.408c14.945,0,22.981-5.771,29.438-10.408 c5.906-4.241,10.57-7.592,20.688-7.592c10.117,0,14.781,3.351,20.687,7.592c6.457,4.637,14.492,10.408,29.437,10.408 c14.947,0,22.983-5.771,29.44-10.408c5.906-4.241,10.572-7.592,20.69-7.592c10.119,0,14.784,3.351,20.69,7.592 c6.457,4.637,14.494,10.408,29.44,10.408c4.142,0,7.5-3.357,7.5-7.5s-3.358-7.5-7.5-7.5c-10.119,0-14.784-3.351-20.691-7.592 c-6.457-4.638-14.493-10.408-29.439-10.408c-0.389,0-0.772,0.005-1.149,0.014c-1.048,0.026-3.042,0.189-3.042-2.311 c0,0,0-88.976,0-119.458c0-2.416,2.13-2.492,2.13-2.492h18.545c5.165,0,8.031-2.989,8.991-5.786 c0.961-2.797,0.535-6.916-3.539-10.089l-28.909-22.509c-1.795-1.415-1.88-2.964-1.88-3.703V62.248c0-6.341-5.159-11.5-11.5-11.5 h-34.933c-6.341,0-11.5,5.159-11.5,11.5c0,0,0,4.504,0,6.005c0,2.25-1.423,0.798-1.423,0.798L175.88,19.095 c-4.427-3.446-11.102-3.446-15.528,0L6.048,139.24c-4.075,3.173-4.5,7.292-3.539,10.089c0.96,2.797,3.827,5.786,8.991,5.786h17.979 c0,0,2.695-0.175,2.695,2.825c0,32.136,0,126.708,0,126.708c0,1.75-0.785,1.338-1.19,1.092c-5.581-3.397-12.746-6.378-23.484-6.378 c-4.142,0-7.5,3.357-7.5,7.5s3.358,7.5,7.5,7.5c10.117,0,14.782,3.351,20.688,7.592C34.644,306.591,42.68,312.362,57.625,312.362z M256.462,67.63c0-2.127,1.643-1.881,1.643-1.881h24.562c0,0,1.728-0.183,1.728,1.881c0,8.355,0,23.202,0,30.936 c0,2.417-1.744,1.038-1.744,1.038l-25.716-21.354c-0.177-0.229-0.473-0.309-0.473-1.809 C256.462,73.768,256.462,69.832,256.462,67.63z M178.557,289.771c-5.906,4.241-10.57,7.592-20.688,7.592 c-5.572,0-9.488-1.019-12.87-2.642c-0.54-0.259-1.584-0.655-1.584-2.593V258.81c0-2.275-0.064-5.979-0.141-8.222 c-0.003-0.124-0.228-12.515,7.087-20.017c3.951-4.051,9.431-6.02,16.753-6.02c7.791,0,13.897,2.161,18.149,6.424 c7.542,7.561,7.601,19.657,7.601,19.743c-0.027,2.226-0.05,5.866-0.05,8.092v21.048c0,2.25-1.475,2.462-2.176,2.753 C185.692,284.66,181.907,287.365,178.557,289.771z M33.354,140.115c-3.375,0-0.901-2.424-0.901-2.424L166.207,33.548 c0,0,0.898-0.795,2.064-0.774c1.149,0.02,2.373,1.255,2.373,1.255l132.948,103.517c0,0,3.513,2.57-0.987,2.57 c-0.512,0-2.047,0-2.047,0c-6.341,0-11.5,5.159-11.5,11.5v130.242c0,1.5-1.221,2.156-1.805,2.466 c-3.248,1.723-5.965,3.667-8.444,5.447c-5.906,4.241-10.572,7.592-20.69,7.592c-10.117,0-14.781-3.351-20.687-7.592 c-6.106-4.385-13.624-9.785-27.065-10.358c-0.771-0.033-2.551,0.028-2.551-2.639c0-4.491,0-17.964,0-17.964 c0-2.175,0.023-5.733,0.049-7.907c0.009-0.741,0.088-18.304-11.857-30.397c-7.179-7.269-16.9-10.954-28.893-10.954 c-11.48,0-20.766,3.586-27.6,10.659c-11.737,12.147-11.258,30.103-11.232,30.86c0.072,2.099,0.133,5.643,0.133,7.739v22.818 c0,2.313-1.279,1.879-1.951,1.571c-4.83-2.214-10.801-3.837-18.719-3.837c-14.945,0-22.98,5.772-29.437,10.408 c-5.905,4.241-10.569,7.592-20.685,7.592c-4.35,0-10.451-1.422-10.451-3.714V151.615c0-6.341-5.159-11.5-11.5-11.5 C35.674,140.115,33.934,140.115,33.354,140.115z"/> <path d="M372.209,348.198c-10.119,0-14.784-3.351-20.691-7.592c-6.457-4.638-14.493-10.408-29.439-10.408 c-14.946,0-22.982,5.771-29.44,10.408c-5.906,4.241-10.572,7.592-20.69,7.592c-10.117,0-14.781-3.351-20.687-7.592 c-6.456-4.637-14.492-10.408-29.437-10.408c-14.945,0-22.981,5.771-29.438,10.408c-5.906,4.241-10.57,7.592-20.688,7.592 c-10.117,0-14.781-3.351-20.687-7.592c-6.456-4.637-14.492-10.408-29.437-10.408c-14.945,0-22.98,5.771-29.437,10.408 c-5.905,4.241-10.569,7.592-20.685,7.592c-10.117,0-14.782-3.351-20.688-7.592c-6.457-4.637-14.492-10.408-29.438-10.408 c-4.142,0-7.5,3.357-7.5,7.5s3.358,7.5,7.5,7.5c10.117,0,14.782,3.351,20.688,7.592c6.456,4.637,14.492,10.408,29.438,10.408 c14.944,0,22.979-5.772,29.436-10.408c5.905-4.241,10.57-7.592,20.686-7.592c10.117,0,14.781,3.351,20.687,7.592 c6.456,4.637,14.492,10.408,29.437,10.408c14.945,0,22.981-5.772,29.438-10.408c5.906-4.241,10.57-7.592,20.688-7.592 c10.117,0,14.781,3.351,20.687,7.592c6.457,4.637,14.492,10.408,29.437,10.408c14.947,0,22.983-5.772,29.44-10.408 c5.906-4.241,10.572-7.592,20.69-7.592c10.119,0,14.784,3.351,20.69,7.592c6.458,4.637,14.494,10.408,29.44,10.408 c4.142,0,7.5-3.357,7.5-7.5S376.351,348.198,372.209,348.198z"/> <path d="M75.533,148.399l91.375-68.47c0.513-0.384,1.929-0.387,2.443-0.005l92.187,68.49c1.075,0.799,2.33,1.184,3.573,1.184 c1.833,0,3.644-0.837,4.821-2.422c1.976-2.66,1.422-6.418-1.238-8.395l-92.188-68.49c-4.793-3.561-12.013-3.546-16.794,0.034 l-91.376,68.471c-2.652,1.987-3.19,5.748-1.204,8.4C69.12,149.847,72.881,150.384,75.533,148.399z"/> </g> </g>
</svg>